<svg id="Laag_1" data-name="Laag 1" xmlns="http://www.w3.org/2000/svg" viewBox="0 0 200 200"  width="200" height="200"><defs><style>.cls-1{fill:#fff}.cls-2{fill:#ffd38f}.cls-3{fill:#eedcff}.cls-4{fill:#ff8780}.cls-5{fill:#cbcbcb}.cls-6{fill:#cf4000}.cls-7{fill:#ff8c00}.cls-8{fill:#fa6500}.cls-9{fill:#f1f1f1}.cls-10{fill:#989898}.cls-11{fill:#e4e4e4}.cls-12{fill:#ffbebb}</style></defs><path class="cls-1" d="M166 103.3V115a5.29 5.29 0 0 1-5.29 5.29h-6.48l-8.41 9.24v-9.24h-2a5.29 5.29 0 0 1-5.29-5.29v-11.7a5.29 5.29 0 0 1 5.31-5.3h16.89a5.29 5.29 0 0 1 5.27 5.3z"/><path class="cls-2" d="M166.36 144.72a10.83 10.83 0 0 0-6.42-4.63 9.7 9.7 0 0 0-2.38-.28c-3.86 0-7.33 2.08-7.33 5.2a5.37 5.37 0 0 0 .73 2.57 5.62 5.62 0 0 0-3.91 5 5.51 5.51 0 0 0 .91 2.92 4.26 4.26 0 0 0-1.87 3.81c0 4.14 3.68 3.86 6.38 5.43a5.07 5.07 0 0 1 2.17 2.34l-.77 3.37a7.55 7.55 0 0 1-1.38 2.93c8.81-2.24 16.36-11.52 16.36-20.45a14.84 14.84 0 0 0-2.49-8.21z"/><path class="cls-3" d="M146.69 176.33z"/><path class="cls-4" d="M140.72 134.43H126a2.34 2.34 0 0 1 0-.38c0-1.55.8-3.25.8-4.25 0-2.79-6.79.7-6.79-3.74a4.4 4.4 0 0 1 .9-2.52 28.53 28.53 0 0 1 9.59 2.23 2.76 2.76 0 0 0-1 2.12c0 1.86 2 3.67 4.14 3.67a4 4 0 0 0 3.22-1.71 25.65 25.65 0 0 1 3.86 4.58z"/><path class="cls-3" d="M137.83 176.33zM137.83 176.33z"/><path class="cls-5" d="M146.69 176.33H86.06a7.17 7.17 0 0 0 7.16 7.16h50.29a7.17 7.17 0 0 0 7.16-7.16z"/><path class="cls-2" d="M115.58 116.43l1 7.07s-8.28 3.5-16.43 6.5c-7.82-2.84-17.83-6.74-21.79-8.29l2.91-12.07a19.71 19.71 0 0 0 3.19.25 20.4 20.4 0 0 0 15.6-7.22h10.76v1.67h13.45a4.84 4.84 0 0 0 0-9.67h-13.45v1.73h-7.12a20.46 20.46 0 0 0-2.56-18.81 23.93 23.93 0 0 0 1.22-7.55v-.28c0-.09 0 .07.05.1a6.58 6.58 0 0 0 5.88 3.68 6.38 6.38 0 0 0 1.55-.19 6.55 6.55 0 0 0 4.82-7.91 27 27 0 0 0-1.13-3.61c-.17-.45-.35-.9-.55-1.33a5.49 5.49 0 0 0 2.74.74 5.41 5.41 0 0 0 5.05-7.33 15.81 15.81 0 0 0-3.4-4.72h1.11a19.73 19.73 0 0 1 9.37 2c4.75 2.53 7.51 7.52 7.51 15.34 0 .78 0 1.58-.07 2.39a58.7 58.7 0 0 1-1.09 8.25 4.36 4.36 0 0 1 3.35 4.4c0 3-1.84 4-3.87 4.43 0 .57.09 1.16.13 1.75l-6.75-.25h-.15l.11.16a14.46 14.46 0 0 0 7.07 5.36v1.76c0 15.37-7.53 21.62-18 21.62zM136.75 129.85a4 4 0 0 1-3.22 1.71c-2.15 0-4.14-1.81-4.14-3.67a2.76 2.76 0 0 1 1-2.12 22.74 22.74 0 0 1 6.36 4.08z"/><path class="cls-1" d="M133.8 87.8c.13 1.73.23 3.49.28 5.26A14.46 14.46 0 0 1 127 87.7a.83.83 0 0 0 0-.15z"/><path class="cls-6" d="M124.27 94.69a4.84 4.84 0 0 1 0 9.67h-13.45v-9.67z"/><path class="cls-3" d="M127.05 87.55a.83.83 0 0 1 0 .15l-.11-.16z"/><path class="cls-6" d="M126.72 129.8c0 1-.8 2.7-.8 4.25a2.34 2.34 0 0 0 0 .38h-3.82a14.63 14.63 0 0 1-2.71-3.25 19.42 19.42 0 0 1-3.84 3.25h-13.47a7.17 7.17 0 0 0-1.31.12v-.12h-3.21a7.52 7.52 0 0 0-6 3.06 2.81 2.81 0 0 0-2.06-1c-3.07 0-5.4 2.07-8.15 2.07a5.52 5.52 0 0 1-2.37-.54 6.72 6.72 0 0 1 3 5.62 7.69 7.69 0 0 1-.22 1.83c-1-.1-2-.15-3.07-.15h-2.07A7.93 7.93 0 0 0 77 143a5 5 0 0 0-5-5c-.67 0-1.39.07-2.06.07-4.79 0-.7-6.25-6.18-6.25-4.45 0-3.33 6.27-6.44 6.27-1.41 0-1.73-1.94-3.76-1.94a3.51 3.51 0 0 0-3.18 1.85l-3.51-6q1.73-1.22 3.57-2.31a9.58 9.58 0 0 0 5.68 2c4.26 0 6.69-3.57 7.3-7.62a56.17 56.17 0 0 1 9-1.93 12.07 12.07 0 0 0-.24 2.46c0 2.79.78 5.54.78 7.81a6.43 6.43 0 0 1-.28 2 5.38 5.38 0 0 1 1.27-.14c1.88 0 3.92.78 5.93.78a5.5 5.5 0 0 0 3.45-1.05 8.12 8.12 0 0 0 2.11.32c2.3.08 8.46-1.94 14.71-4.25 5 1.83 9.15 3.21 10.18 3.25 3.47.11 6.22-1.61 6.4-7.23a24.5 24.5 0 0 0-.06-2.55h1.44c.93 0 1.84 0 2.72.1a4.4 4.4 0 0 0-.9 2.52c0 4.34 6.79.84 6.79 3.64z"/><path class="cls-7" d="M122.1 134.43h-6.55a19.42 19.42 0 0 0 3.84-3.25 14.63 14.63 0 0 0 2.71 3.25z"/><path class="cls-6" d="M93.22 183.49h28.45a73.08 73.08 0 0 1-42.25 0z"/><path class="cls-8" d="M116.6 123.5h.07a24.5 24.5 0 0 1 .06 2.55c-.18 5.62-2.93 7.34-6.4 7.23-1 0-5.15-1.42-10.18-3.25 8.15-3.03 16.45-6.53 16.45-6.53z"/><path class="cls-9" d="M120.83 123.54c-.88-.06-1.79-.1-2.72-.1h-1.51l-1-7.07h.47c10.52 0 18-6.25 18-21.62v-1.76c-.05-1.77-.15-3.53-.28-5.26 0-.59-.09-1.18-.13-1.75 2-.38 3.87-1.47 3.87-4.43a4.36 4.36 0 0 0-3.35-4.4 58.7 58.7 0 0 0 1.1-8.15c0-.81.07-1.61.07-2.39 0-7.82-2.76-12.81-7.51-15.34a31.57 31.57 0 0 0 5.09-2.27 72.66 72.66 0 0 1 33.43 95.74 10.83 10.83 0 0 0-6.42-4.63 7.47 7.47 0 0 0-1.4-2.82 7.55 7.55 0 0 0-5.89-2.84h-11.93a25.65 25.65 0 0 0-4-4.58 22.74 22.74 0 0 0-6.33-4.08 28.53 28.53 0 0 0-9.56-2.25zM166 115v-11.7a5.29 5.29 0 0 0-5.27-5.3h-16.89a5.29 5.29 0 0 0-5.29 5.29V115a5.29 5.29 0 0 0 5.29 5.29h2v9.24l8.41-9.24h6.48A5.29 5.29 0 0 0 166 115z"/><path class="cls-1" d="M110.82 96.42v6.27h-10.76a10.31 10.31 0 0 1-6.65-2.46l-.28-.24-6.29-5.74-4.94-4.5a3.14 3.14 0 0 1 4.22-4.64l5.52 5 5.58 5.08.14.13a4 4 0 0 0 2.75 1.06h10.71z"/><path class="cls-10" d="M104.92 89.45a20.35 20.35 0 0 1-1.22 7h-3.59a4 4 0 0 1-2.75-1.06l-.14-.13a14.05 14.05 0 0 0-4.85-17.35v-7.34a20.52 20.52 0 0 1 12.55 18.88z"/><path class="cls-11" d="M157.56 139.81a9.7 9.7 0 0 1 2.38.28 7.47 7.47 0 0 0-1.4-2.82 7.55 7.55 0 0 0-5.89-2.84h-50.57a7 7 0 0 0-1.3.12 7.51 7.51 0 0 0-6 5.74l-2 8.8-4.12 18a7.52 7.52 0 0 0 1.45 6.37 6.66 6.66 0 0 0 .56.62 7.54 7.54 0 0 0 5.12 2.22h51a7.53 7.53 0 0 0 7.18-5.86l.77-3.37a5.07 5.07 0 0 0-2.17-2.34c-2.7-1.57-6.38-1.29-6.38-5.43a4.26 4.26 0 0 1 1.87-3.81 5.51 5.51 0 0 1-.91-2.92 5.62 5.62 0 0 1 3.91-5 5.37 5.37 0 0 1-.73-2.57c-.1-3.11 3.37-5.19 7.23-5.19zm-33.26 23a7.4 7.4 0 0 0 4.85-1.8 7.4 7.4 0 0 1-4.85 1.8zm5.13-2.06l.25-.25zm-8.9-11.75l.33-.18z"/><path class="cls-5" d="M98.46 89.45a13.94 13.94 0 0 1-1.24 5.78l-5.58-5.08a7.55 7.55 0 0 0 .73-3.25v-9a14 14 0 0 1 6.09 11.55z"/><path class="cls-10" d="M93.41 100.23a10.31 10.31 0 0 0 6.65 2.46 20.4 20.4 0 0 1-15.6 7.22 19.71 19.71 0 0 1-3.19-.25A20.45 20.45 0 0 1 64 89.45a21.8 21.8 0 0 1 .23-3.14 20.51 20.51 0 0 1 12.85-16v7.18a14 14 0 1 0 16.33 22.69z"/><path class="cls-8" d="M78.36 121.73c4 1.55 14 5.45 21.79 8.29-6.25 2.31-12.41 4.33-14.71 4.25a8.12 8.12 0 0 1-2.11-.32c-2.91-.84-4.57-3.25-5.12-6.3a14.52 14.52 0 0 1-.2-2.91 18 18 0 0 1 .35-3.01z"/><path class="cls-3" d="M96 176.33z"/><path class="cls-11" d="M86.59 36.31a15.09 15.09 0 0 0-6 5.66 18.73 18.73 0 0 0-1.3 2.57A35.16 35.16 0 0 0 77.08 58v28.9a7.64 7.64 0 0 0 7.64 7.65 7.76 7.76 0 0 0 2.12-.3l-4.94-4.5a3.14 3.14 0 0 1 4.22-4.64l5.52 5a7.55 7.55 0 0 0 .73-3.25V50.59a19.08 19.08 0 0 1 .18-2.59 17 17 0 0 1 2.22-6.35c.28-.45.57-.88.88-1.29l.21-.26a15.12 15.12 0 0 0 2-3.74z"/><path class="cls-5" d="M93.13 100l.28.24a14 14 0 1 1-16.33-22.7v9.36a7.64 7.64 0 0 0 7.64 7.65 7.76 7.76 0 0 0 2.12-.3z"/><path class="cls-4" d="M89.44 143.7l-.77 3.37a26.72 26.72 0 0 0-7-1.62 7.69 7.69 0 0 0 .22-1.83 6.72 6.72 0 0 0-3-5.62 5.52 5.52 0 0 0 2.37.54c2.75 0 5.08-2.07 8.15-2.07a2.81 2.81 0 0 1 2.06 1 7.48 7.48 0 0 0-1.29 2.8z"/><path class="cls-12" d="M78.21 127.65c.55 3 2.21 5.46 5.12 6.3A5.5 5.5 0 0 1 79.9 135c-2 0-4.05-.78-5.93-.78a5.38 5.38 0 0 0-1.27.14 6.43 6.43 0 0 0 .28-2c0-2.27-.78-5-.78-7.81a12.07 12.07 0 0 1 .24-2.46 46.44 46.44 0 0 1 5.92-.39 18 18 0 0 0-.35 3 14.52 14.52 0 0 0 .2 2.95z"/><path class="cls-10" d="M86.06 176.33h-21.3a6.69 6.69 0 0 0 .06.9 7.15 7.15 0 0 0 7.1 6.26h21.3a7.17 7.17 0 0 1-7.16-7.16zm-14.64 4.48a1 1 0 0 1-.91-.68 1.09 1.09 0 0 1 0-.26.95.95 0 1 1 1.89 0 .94.94 0 0 1-.53.84 1 1 0 0 1-.45.1z"/><path class="cls-6" d="M87.71 175.34a6.11 6.11 0 0 1-.86.06 7.37 7.37 0 0 1-3.95-1.21c-.59.92-1.7 1.5-3.53 1.5-3.3 0-3.79-3.58-6.86-3.58a5.29 5.29 0 0 0-1.59.27A55.35 55.35 0 0 0 62.7 176c.7.42 1.4.84 2.12 1.24a6.69 6.69 0 0 1-.06-.9h26.47a7.54 7.54 0 0 1-3.52-1zM137.3 31.74c-5.28 0-5.63 5.5-11.11 8.57a16.69 16.69 0 0 1-3 1.33 31.51 31.51 0 0 0 5.13-12.5 6.27 6.27 0 1 0-12.34-2.2 18.57 18.57 0 0 1-6.23 11 34.51 34.51 0 0 0 1-5.13 5.84 5.84 0 1 0-11.58-1.51 21.34 21.34 0 0 1-1.26 5 15.12 15.12 0 0 1-2 3.74l-.21.26c-.31.41-.6.84-.88 1.29A17 17 0 0 0 92.55 48a19.08 19.08 0 0 0-.18 2.64v20a20.46 20.46 0 0 1 8.77 7 23.93 23.93 0 0 0 1.22-7.55v-.28c0-.09 0 .07.05.1a6.58 6.58 0 0 0 5.88 3.68 6.38 6.38 0 0 0 1.55-.19 6.55 6.55 0 0 0 4.82-7.91 27 27 0 0 0-1.13-3.61c-.17-.45-.35-.9-.55-1.33a5.49 5.49 0 0 0 2.74.74 5.41 5.41 0 0 0 5.05-7.33 15.81 15.81 0 0 0-3.4-4.72h1.11a19.73 19.73 0 0 1 9.37 2 31.57 31.57 0 0 0 5.08-2.24c5.86-3.25 9.48-7.84 9.48-11.67a5.29 5.29 0 0 0-5.11-5.59zM64.4 46.14a5.6 5.6 0 0 0 .3 1.79 6.29 6.29 0 0 0 5 4.21l.78.12a19.85 19.85 0 0 0-3.84.08c-4.33.49-10 3.91-10 8.77 0 3.57 2.16 6.42 6.5 6.42h.47c-4.61 2.79-8.06 6.8-8.06 11.93 0 3.8 2.25 7 6.87 7a8.57 8.57 0 0 0 1.79-.17 20.51 20.51 0 0 1 12.85-16V58a35.16 35.16 0 0 1 2.2-13.43A18.73 18.73 0 0 1 80.58 42a12.19 12.19 0 0 0-7.37-2.82c-3.9-.03-8.81 2.94-8.81 6.96z"/><path class="cls-7" d="M76.93 143a7.93 7.93 0 0 1-.38 2.32 39.64 39.64 0 0 0-7.52 1.1 47.83 47.83 0 0 0-5.65 1.75 45.37 45.37 0 0 0-5.48 2.49L50.38 138a3.51 3.51 0 0 1 3.11-1.74c2 0 2.35 1.94 3.76 1.94 3.11 0 2-6.27 6.44-6.27 5.48 0 1.39 6.25 6.18 6.25.67 0 1.39-.07 2.06-.07a5 5 0 0 1 5 4.89zm-10.54-.37a4.28 4.28 0 0 0-.27-1.5 3.33 3.33 0 0 0-3.22-2.22 4.55 4.55 0 0 0-3.64 1.95 3 3 0 0 0-.58 1.77 3.72 3.72 0 0 0 3.85 3.64 3.56 3.56 0 0 0 3.86-3.61z"/><path class="cls-5" d="M71.42 178.92a1 1 0 0 0-1 1 1.09 1.09 0 0 0 0 .26 1 1 0 0 0 .91.68 1 1 0 0 0 .41-.1.94.94 0 0 0-.41-1.79z"/><path class="cls-12" d="M66.12 141.16a4.28 4.28 0 0 1 .27 1.5 3.56 3.56 0 0 1-3.86 3.64 3.72 3.72 0 0 1-3.85-3.64 3 3 0 0 1 .58-1.77 4.55 4.55 0 0 1 3.64-1.95 3.33 3.33 0 0 1 3.22 2.22z"/><path class="cls-9" d="M46.87 132a41.56 41.56 0 0 0-12.09 12.81A72.68 72.68 0 0 1 66 50.12a6.2 6.2 0 0 0 3.76 2l.78.12a19.85 19.85 0 0 0-3.84.08c-4.33.49-10 3.91-10 8.77 0 3.57 2.16 6.42 6.5 6.42h.47c-4.61 2.79-8.06 6.8-8.06 11.93 0 3.8 2.25 7 6.87 7a8.57 8.57 0 0 0 1.79-.17 21.8 21.8 0 0 0-.27 3.18 20.45 20.45 0 0 0 17.27 20.21l-2.91 12.07a46.44 46.44 0 0 0-5.92.39 56.17 56.17 0 0 0-9 1.93 58.45 58.45 0 0 0-13 5.65q-1.84 1.1-3.57 2.3zm14.87-22.7v-12a5.43 5.43 0 0 0-5.43-5.42H39a5.43 5.43 0 0 0-5.43 5.42v12a5.43 5.43 0 0 0 5.43 5.44h6.64l8.63 9.47v-9.47h2.05a5.43 5.43 0 0 0 5.42-5.43z"/><path class="cls-1" d="M61.74 97.32v12a5.43 5.43 0 0 1-5.43 5.43h-2.05v9.47l-8.63-9.47H39a5.43 5.43 0 0 1-5.43-5.43v-12A5.43 5.43 0 0 1 39 91.9h17.31a5.43 5.43 0 0 1 5.43 5.42z"/><path class="cls-4" d="M63.42 124.05c-.61 4-3 7.62-7.3 7.62a9.58 9.58 0 0 1-5.68-2 58.45 58.45 0 0 1 12.98-5.62z"/><path class="cls-2" d="M85.55 173.49a7.53 7.53 0 0 1-1.46-6.37l4.58-20.05a26.72 26.72 0 0 0-7-1.62c-1-.1-2-.15-3.08-.15h-2.06a39.64 39.64 0 0 0-7.52 1.1 47.83 47.83 0 0 0-5.65 1.75 45.37 45.37 0 0 0-5.48 2.49L50.38 138l-3.51-6a41.56 41.56 0 0 0-12.09 12.81 32 32 0 0 0-4.47 16.38c0 12.58 7.22 19.62 17.78 19.62 5.25 0 9.86-2.42 14.61-4.83a55.35 55.35 0 0 1 8.22-3.61 5.29 5.29 0 0 1 1.59-.27c3.07 0 3.56 3.58 6.86 3.58 1.83 0 2.94-.58 3.53-1.5a7.37 7.37 0 0 0 3.95 1.21 6.11 6.11 0 0 0 .86-.06 7.49 7.49 0 0 1-2.16-1.84z"/><path class="cls-7" d="M86 163.57a.5.5 0 0 1-.31-.1l-.25-.18a7.78 7.78 0 0 0-1.79-.93.51.51 0 0 1-.3-.66.52.52 0 0 1 .66-.31 9.65 9.65 0 0 1 2 1.05l.28.21a.51.51 0 0 1 .1.72.54.54 0 0 1-.39.2z"/><path class="cls-5" d="M92.73 149.09l2-8.8a7.52 7.52 0 0 1 6-5.74v-.12h-3.17a7.55 7.55 0 0 0-7.34 5.86l-.78 3.41-.77 3.37-4.58 20.05a7.55 7.55 0 0 0 7.14 9.21h4.51a7.54 7.54 0 0 1-5.12-2.22 6.66 6.66 0 0 1-.56-.62 7.52 7.52 0 0 1-1.45-6.37z"/><path class="cls-9" d="M124.3 149.75a5.64 5.64 0 1 1-5.63 5.63 5.64 5.64 0 0 1 5.63-5.63z"/><path class="cls-7" d="M83.3 175.22a.5.5 0 0 1-.31-.1.51.51 0 0 1-.11-.72 5.52 5.52 0 0 0 1-3.33c0-4-3.2-8.51-7.78-8.51a7.79 7.79 0 0 0-2 .26.51.51 0 0 1-.62-.37.51.51 0 0 1 .37-.63 9.2 9.2 0 0 1 2.25-.29c5.19 0 8.81 5 8.81 9.54a6.55 6.55 0 0 1-1.2 3.93.51.51 0 0 1-.41.22zM157.79 159.41a.51.51 0 0 1-.43-.24 8.58 8.58 0 0 0-7.05-3.85 6.2 6.2 0 0 0-2.31.42.51.51 0 1 1-.38-1 7.19 7.19 0 0 1 2.69-.5 9.66 9.66 0 0 1 7.92 4.33.52.52 0 0 1-.16.71.57.57 0 0 1-.28.13zM160.83 150.94a.5.5 0 0 1-.37-.16 9.94 9.94 0 0 0-7.15-3.05 9 9 0 0 0-2.26.28.52.52 0 0 1-.25-1 10 10 0 0 1 2.51-.31 11 11 0 0 1 7.89 3.37.52.52 0 0 1 0 .73.5.5 0 0 1-.37.14z"/><path class="cls-9" d="M115.63 117.27a15.85 15.85 0 0 1-5.65-1.38.51.51 0 0 1-.26-.68.52.52 0 0 1 .68-.25 15 15 0 0 0 5.3 1.28.52.52 0 0 1 0 1z"/><path class="cls-4" d="M122.93 91.67a.51.51 0 0 1-.13-1 5.34 5.34 0 0 0 3.87-4.86 3.67 3.67 0 0 0-.65-2.1.52.52 0 1 1 .85-.59 4.72 4.72 0 0 1 .83 2.69 6.43 6.43 0 0 1-4.64 5.86z"/><path d="M131.1 74.44h-.1a.51.51 0 0 1-.43-.58c.06-.37.1-.74.13-1.09.4-4.67-1.76-6.53-3.91-6.72-3.87-.32-7 3.72-7.7 7.82a.51.51 0 0 1-1-.19c1.1-6 5.35-8.94 8.79-8.65 4 .34 5.15 4.43 4.86 7.83 0 .37-.08.76-.14 1.16a.52.52 0 0 1-.5.42z" fill="#922300"/><circle class="cls-4" cx="121.92" cy="85.71" r=".68"/><circle class="cls-4" cx="118.6" cy="82.41" r=".68"/><circle class="cls-4" cx="115.85" cy="87.29" r=".68"/><circle class="cls-5" cx="53.15" cy="107.44" r="1.87"/><circle class="cls-5" cx="47.48" cy="107.44" r="1.87"/><circle class="cls-5" cx="41.8" cy="107.44" r="1.87"/><path class="cls-7" d="M155.43 103.68c1.82 0 3.32 1.32 3.32 3.9 0 4.58-6.78 9-6.78 9s-6.77-3.86-6.77-9c0-2.58 1.5-3.9 3.32-3.9a3.57 3.57 0 0 1 3.45 2.45 3.59 3.59 0 0 1 3.46-2.45z"/></svg>
